<mxfile host="app.diagrams.net" modified="2023-07-28T04:38:03.621Z" agent="Mozilla/5.0 (Macintosh; Intel Mac OS X 10_15_7) AppleWebKit/537.36 (KHTML, like Gecko) Chrome/115.0.0.0 Safari/537.36" etag="GIUG9M9C2xgMPPvFD6UJ" version="21.6.5" type="github">
  <diagram name="Page-1" id="j0BGtALlvZomv2xtnGGf">
    <mxGraphModel dx="1714" dy="735" grid="1" gridSize="10" guides="1" tooltips="1" connect="1" arrows="1" fold="1" page="0" pageScale="1" pageWidth="850" pageHeight="1100" math="0" shadow="0">
      <root>
        <mxCell id="0" />
        <mxCell id="1" parent="0" />
        <mxCell id="XHypIMeRQgzXCZsLYSNp-4" value="" style="edgeStyle=orthogonalEdgeStyle;rounded=0;orthogonalLoop=1;jettySize=auto;html=1;entryX=0.5;entryY=0;entryDx=0;entryDy=0;" edge="1" parent="1" source="XHypIMeRQgzXCZsLYSNp-1" target="XHypIMeRQgzXCZsLYSNp-2">
          <mxGeometry relative="1" as="geometry">
            <mxPoint x="415" y="300" as="targetPoint" />
          </mxGeometry>
        </mxCell>
        <mxCell id="XHypIMeRQgzXCZsLYSNp-1" value="User" style="shape=umlActor;verticalLabelPosition=bottom;verticalAlign=top;html=1;outlineConnect=0;" vertex="1" parent="1">
          <mxGeometry x="400" y="160" width="30" height="60" as="geometry" />
        </mxCell>
        <mxCell id="XHypIMeRQgzXCZsLYSNp-6" value="" style="edgeStyle=orthogonalEdgeStyle;rounded=0;orthogonalLoop=1;jettySize=auto;html=1;exitX=0.75;exitY=1;exitDx=0;exitDy=0;" edge="1" parent="1" source="XHypIMeRQgzXCZsLYSNp-2" target="XHypIMeRQgzXCZsLYSNp-5">
          <mxGeometry relative="1" as="geometry" />
        </mxCell>
        <mxCell id="XHypIMeRQgzXCZsLYSNp-9" value="" style="edgeStyle=orthogonalEdgeStyle;rounded=0;orthogonalLoop=1;jettySize=auto;html=1;exitX=0.25;exitY=1;exitDx=0;exitDy=0;" edge="1" parent="1" source="XHypIMeRQgzXCZsLYSNp-2" target="XHypIMeRQgzXCZsLYSNp-8">
          <mxGeometry relative="1" as="geometry">
            <mxPoint x="360" y="450" as="sourcePoint" />
          </mxGeometry>
        </mxCell>
        <mxCell id="XHypIMeRQgzXCZsLYSNp-11" value="" style="edgeStyle=orthogonalEdgeStyle;rounded=0;orthogonalLoop=1;jettySize=auto;html=1;" edge="1" parent="1" source="XHypIMeRQgzXCZsLYSNp-2" target="XHypIMeRQgzXCZsLYSNp-10">
          <mxGeometry relative="1" as="geometry" />
        </mxCell>
        <mxCell id="XHypIMeRQgzXCZsLYSNp-2" value="Ingress Gateway" style="rounded=0;whiteSpace=wrap;html=1;" vertex="1" parent="1">
          <mxGeometry x="355" y="350" width="120" height="60" as="geometry" />
        </mxCell>
        <mxCell id="XHypIMeRQgzXCZsLYSNp-17" value="" style="edgeStyle=orthogonalEdgeStyle;rounded=0;orthogonalLoop=1;jettySize=auto;html=1;" edge="1" parent="1" source="XHypIMeRQgzXCZsLYSNp-5" target="XHypIMeRQgzXCZsLYSNp-16">
          <mxGeometry relative="1" as="geometry" />
        </mxCell>
        <mxCell id="XHypIMeRQgzXCZsLYSNp-5" value="Service&lt;br&gt;Discovery" style="rounded=0;whiteSpace=wrap;html=1;" vertex="1" parent="1">
          <mxGeometry x="661" y="560" width="120" height="60" as="geometry" />
        </mxCell>
        <mxCell id="XHypIMeRQgzXCZsLYSNp-13" value="" style="edgeStyle=orthogonalEdgeStyle;rounded=0;orthogonalLoop=1;jettySize=auto;html=1;entryX=0.5;entryY=0;entryDx=0;entryDy=0;" edge="1" parent="1" source="XHypIMeRQgzXCZsLYSNp-8" target="XHypIMeRQgzXCZsLYSNp-37">
          <mxGeometry relative="1" as="geometry">
            <mxPoint x="110" y="700" as="targetPoint" />
          </mxGeometry>
        </mxCell>
        <mxCell id="XHypIMeRQgzXCZsLYSNp-8" value="Service&lt;br style=&quot;--tw-border-spacing-x: 0; --tw-border-spacing-y: 0; --tw-translate-x: 0; --tw-translate-y: 0; --tw-rotate: 0; --tw-skew-x: 0; --tw-skew-y: 0; --tw-scale-x: 1; --tw-scale-y: 1; --tw-pan-x: ; --tw-pan-y: ; --tw-pinch-zoom: ; --tw-scroll-snap-strictness: proximity; --tw-ordinal: ; --tw-slashed-zero: ; --tw-numeric-figure: ; --tw-numeric-spacing: ; --tw-numeric-fraction: ; --tw-ring-inset: ; --tw-ring-offset-width: 0px; --tw-ring-offset-color: #fff; --tw-ring-color: rgb(59 130 246 / .5); --tw-ring-offset-shadow: 0 0 #0000; --tw-ring-shadow: 0 0 #0000; --tw-shadow: 0 0 #0000; --tw-shadow-colored: 0 0 #0000; --tw-blur: ; --tw-brightness: ; --tw-contrast: ; --tw-grayscale: ; --tw-hue-rotate: ; --tw-invert: ; --tw-saturate: ; --tw-sepia: ; --tw-drop-shadow: ; --tw-backdrop-blur: ; --tw-backdrop-brightness: ; --tw-backdrop-contrast: ; --tw-backdrop-grayscale: ; --tw-backdrop-hue-rotate: ; --tw-backdrop-invert: ; --tw-backdrop-opacity: ; --tw-backdrop-saturate: ; --tw-backdrop-sepia: ; border-color: var(--border-color);&quot;&gt;Discovery" style="rounded=0;whiteSpace=wrap;html=1;" vertex="1" parent="1">
          <mxGeometry x="50" y="560" width="120" height="60" as="geometry" />
        </mxCell>
        <mxCell id="XHypIMeRQgzXCZsLYSNp-15" value="" style="edgeStyle=orthogonalEdgeStyle;rounded=0;orthogonalLoop=1;jettySize=auto;html=1;entryX=0.5;entryY=0;entryDx=0;entryDy=0;" edge="1" parent="1" source="XHypIMeRQgzXCZsLYSNp-10" target="XHypIMeRQgzXCZsLYSNp-32">
          <mxGeometry relative="1" as="geometry">
            <mxPoint x="415" y="700" as="targetPoint" />
          </mxGeometry>
        </mxCell>
        <mxCell id="XHypIMeRQgzXCZsLYSNp-10" value="Service&lt;br&gt;Discovery" style="rounded=0;whiteSpace=wrap;html=1;" vertex="1" parent="1">
          <mxGeometry x="355" y="560" width="120" height="60" as="geometry" />
        </mxCell>
        <mxCell id="XHypIMeRQgzXCZsLYSNp-19" value="" style="edgeStyle=orthogonalEdgeStyle;rounded=0;orthogonalLoop=1;jettySize=auto;html=1;exitX=0.25;exitY=1;exitDx=0;exitDy=0;" edge="1" parent="1" source="XHypIMeRQgzXCZsLYSNp-16" target="XHypIMeRQgzXCZsLYSNp-18">
          <mxGeometry relative="1" as="geometry" />
        </mxCell>
        <mxCell id="XHypIMeRQgzXCZsLYSNp-24" value="" style="edgeStyle=orthogonalEdgeStyle;rounded=0;orthogonalLoop=1;jettySize=auto;html=1;entryX=0.5;entryY=0;entryDx=0;entryDy=0;exitX=0.75;exitY=1;exitDx=0;exitDy=0;" edge="1" parent="1" source="XHypIMeRQgzXCZsLYSNp-16" target="XHypIMeRQgzXCZsLYSNp-21">
          <mxGeometry relative="1" as="geometry">
            <mxPoint x="721" y="840" as="targetPoint" />
          </mxGeometry>
        </mxCell>
        <mxCell id="XHypIMeRQgzXCZsLYSNp-16" value="&lt;meta charset=&quot;utf-8&quot;&gt;&lt;span style=&quot;color: rgb(0, 0, 0); font-family: Helvetica; font-size: 12px; font-style: normal; font-variant-ligatures: normal; font-variant-caps: normal; font-weight: 400; letter-spacing: normal; orphans: 2; text-align: center; text-indent: 0px; text-transform: none; widows: 2; word-spacing: 0px; -webkit-text-stroke-width: 0px; background-color: rgb(255, 255, 255); text-decoration-thickness: initial; text-decoration-style: initial; text-decoration-color: initial; float: none; display: inline !important;&quot;&gt;Microservice&lt;/span&gt;" style="rounded=0;whiteSpace=wrap;html=1;" vertex="1" parent="1">
          <mxGeometry x="661" y="700" width="120" height="60" as="geometry" />
        </mxCell>
        <mxCell id="XHypIMeRQgzXCZsLYSNp-18" value="&lt;span style=&quot;color: rgb(0, 0, 0); font-family: Helvetica; font-size: 12px; font-style: normal; font-variant-ligatures: normal; font-variant-caps: normal; font-weight: 400; letter-spacing: normal; orphans: 2; text-align: center; text-indent: 0px; text-transform: none; widows: 2; word-spacing: 0px; -webkit-text-stroke-width: 0px; background-color: rgb(255, 255, 255); text-decoration-thickness: initial; text-decoration-style: initial; text-decoration-color: initial; float: none; display: inline !important;&quot;&gt;Replica&lt;/span&gt;" style="rounded=0;whiteSpace=wrap;html=1;" vertex="1" parent="1">
          <mxGeometry x="570" y="900" width="120" height="60" as="geometry" />
        </mxCell>
        <mxCell id="XHypIMeRQgzXCZsLYSNp-21" value="&lt;span style=&quot;color: rgb(0, 0, 0); font-family: Helvetica; font-size: 12px; font-style: normal; font-variant-ligatures: normal; font-variant-caps: normal; font-weight: 400; letter-spacing: normal; orphans: 2; text-align: center; text-indent: 0px; text-transform: none; widows: 2; word-spacing: 0px; -webkit-text-stroke-width: 0px; background-color: rgb(255, 255, 255); text-decoration-thickness: initial; text-decoration-style: initial; text-decoration-color: initial; float: none; display: inline !important;&quot;&gt;Replica&lt;/span&gt;" style="rounded=0;whiteSpace=wrap;html=1;" vertex="1" parent="1">
          <mxGeometry x="750" y="900" width="120" height="60" as="geometry" />
        </mxCell>
        <mxCell id="XHypIMeRQgzXCZsLYSNp-30" value="" style="edgeStyle=orthogonalEdgeStyle;rounded=0;orthogonalLoop=1;jettySize=auto;html=1;exitX=0.25;exitY=1;exitDx=0;exitDy=0;" edge="1" parent="1" source="XHypIMeRQgzXCZsLYSNp-32" target="XHypIMeRQgzXCZsLYSNp-33">
          <mxGeometry relative="1" as="geometry" />
        </mxCell>
        <mxCell id="XHypIMeRQgzXCZsLYSNp-31" value="" style="edgeStyle=orthogonalEdgeStyle;rounded=0;orthogonalLoop=1;jettySize=auto;html=1;entryX=0.5;entryY=0;entryDx=0;entryDy=0;exitX=0.75;exitY=1;exitDx=0;exitDy=0;" edge="1" parent="1" source="XHypIMeRQgzXCZsLYSNp-32" target="XHypIMeRQgzXCZsLYSNp-34">
          <mxGeometry relative="1" as="geometry">
            <mxPoint x="401" y="850" as="targetPoint" />
          </mxGeometry>
        </mxCell>
        <mxCell id="XHypIMeRQgzXCZsLYSNp-32" value="&lt;meta charset=&quot;utf-8&quot;&gt;&lt;span style=&quot;color: rgb(0, 0, 0); font-family: Helvetica; font-size: 12px; font-style: normal; font-variant-ligatures: normal; font-variant-caps: normal; font-weight: 400; letter-spacing: normal; orphans: 2; text-align: center; text-indent: 0px; text-transform: none; widows: 2; word-spacing: 0px; -webkit-text-stroke-width: 0px; background-color: rgb(255, 255, 255); text-decoration-thickness: initial; text-decoration-style: initial; text-decoration-color: initial; float: none; display: inline !important;&quot;&gt;Microservice&lt;/span&gt;" style="rounded=0;whiteSpace=wrap;html=1;" vertex="1" parent="1">
          <mxGeometry x="355" y="710" width="120" height="60" as="geometry" />
        </mxCell>
        <mxCell id="XHypIMeRQgzXCZsLYSNp-33" value="&lt;span style=&quot;color: rgb(0, 0, 0); font-family: Helvetica; font-size: 12px; font-style: normal; font-variant-ligatures: normal; font-variant-caps: normal; font-weight: 400; letter-spacing: normal; orphans: 2; text-align: center; text-indent: 0px; text-transform: none; widows: 2; word-spacing: 0px; -webkit-text-stroke-width: 0px; background-color: rgb(255, 255, 255); text-decoration-thickness: initial; text-decoration-style: initial; text-decoration-color: initial; float: none; display: inline !important;&quot;&gt;Replica&lt;/span&gt;" style="rounded=0;whiteSpace=wrap;html=1;" vertex="1" parent="1">
          <mxGeometry x="260" y="890" width="120" height="60" as="geometry" />
        </mxCell>
        <mxCell id="XHypIMeRQgzXCZsLYSNp-34" value="&lt;span style=&quot;color: rgb(0, 0, 0); font-family: Helvetica; font-size: 12px; font-style: normal; font-variant-ligatures: normal; font-variant-caps: normal; font-weight: 400; letter-spacing: normal; orphans: 2; text-align: center; text-indent: 0px; text-transform: none; widows: 2; word-spacing: 0px; -webkit-text-stroke-width: 0px; background-color: rgb(255, 255, 255); text-decoration-thickness: initial; text-decoration-style: initial; text-decoration-color: initial; float: none; display: inline !important;&quot;&gt;Replica&lt;/span&gt;" style="rounded=0;whiteSpace=wrap;html=1;" vertex="1" parent="1">
          <mxGeometry x="440" y="900" width="120" height="60" as="geometry" />
        </mxCell>
        <mxCell id="XHypIMeRQgzXCZsLYSNp-35" value="" style="edgeStyle=orthogonalEdgeStyle;rounded=0;orthogonalLoop=1;jettySize=auto;html=1;exitX=0.25;exitY=1;exitDx=0;exitDy=0;" edge="1" parent="1" source="XHypIMeRQgzXCZsLYSNp-37" target="XHypIMeRQgzXCZsLYSNp-38">
          <mxGeometry relative="1" as="geometry" />
        </mxCell>
        <mxCell id="XHypIMeRQgzXCZsLYSNp-36" value="" style="edgeStyle=orthogonalEdgeStyle;rounded=0;orthogonalLoop=1;jettySize=auto;html=1;entryX=0.5;entryY=0;entryDx=0;entryDy=0;exitX=0.75;exitY=1;exitDx=0;exitDy=0;" edge="1" parent="1" source="XHypIMeRQgzXCZsLYSNp-37" target="XHypIMeRQgzXCZsLYSNp-39">
          <mxGeometry relative="1" as="geometry">
            <mxPoint x="101" y="840" as="targetPoint" />
          </mxGeometry>
        </mxCell>
        <mxCell id="XHypIMeRQgzXCZsLYSNp-37" value="&lt;meta charset=&quot;utf-8&quot;&gt;&lt;span style=&quot;color: rgb(0, 0, 0); font-family: Helvetica; font-size: 12px; font-style: normal; font-variant-ligatures: normal; font-variant-caps: normal; font-weight: 400; letter-spacing: normal; orphans: 2; text-align: center; text-indent: 0px; text-transform: none; widows: 2; word-spacing: 0px; -webkit-text-stroke-width: 0px; background-color: rgb(255, 255, 255); text-decoration-thickness: initial; text-decoration-style: initial; text-decoration-color: initial; float: none; display: inline !important;&quot;&gt;Microservice&lt;/span&gt;" style="rounded=0;whiteSpace=wrap;html=1;" vertex="1" parent="1">
          <mxGeometry x="50" y="700" width="120" height="60" as="geometry" />
        </mxCell>
        <mxCell id="XHypIMeRQgzXCZsLYSNp-38" value="&lt;span style=&quot;color: rgb(0, 0, 0); font-family: Helvetica; font-size: 12px; font-style: normal; font-variant-ligatures: normal; font-variant-caps: normal; font-weight: 400; letter-spacing: normal; orphans: 2; text-align: center; text-indent: 0px; text-transform: none; widows: 2; word-spacing: 0px; -webkit-text-stroke-width: 0px; background-color: rgb(255, 255, 255); text-decoration-thickness: initial; text-decoration-style: initial; text-decoration-color: initial; float: none; display: inline !important;&quot;&gt;Replica&lt;/span&gt;" style="rounded=0;whiteSpace=wrap;html=1;" vertex="1" parent="1">
          <mxGeometry x="-40" y="890" width="120" height="60" as="geometry" />
        </mxCell>
        <mxCell id="XHypIMeRQgzXCZsLYSNp-39" value="&lt;span style=&quot;color: rgb(0, 0, 0); font-family: Helvetica; font-size: 12px; font-style: normal; font-variant-ligatures: normal; font-variant-caps: normal; font-weight: 400; letter-spacing: normal; orphans: 2; text-align: center; text-indent: 0px; text-transform: none; widows: 2; word-spacing: 0px; -webkit-text-stroke-width: 0px; background-color: rgb(255, 255, 255); text-decoration-thickness: initial; text-decoration-style: initial; text-decoration-color: initial; float: none; display: inline !important;&quot;&gt;Replica&lt;/span&gt;" style="rounded=0;whiteSpace=wrap;html=1;" vertex="1" parent="1">
          <mxGeometry x="130" y="890" width="120" height="60" as="geometry" />
        </mxCell>
        <mxCell id="XHypIMeRQgzXCZsLYSNp-40" value="" style="shape=cylinder3;whiteSpace=wrap;html=1;boundedLbl=1;backgroundOutline=1;size=15;" vertex="1" parent="1">
          <mxGeometry x="320" y="1080" width="60" height="80" as="geometry" />
        </mxCell>
      </root>
    </mxGraphModel>
  </diagram>
</mxfile>
